<?xml version="1.0" encoding="UTF-8"?>
<svg width="24px" height="20px" viewBox="0 0 24 20" version="1.1" xmlns="http://www.w3.org/2000/svg" xmlns:xlink="http://www.w3.org/1999/xlink">
    <!-- Generator: Sketch 50.2 (55047) - http://www.bohemiancoding.com/sketch -->
    <title>Icon - Fax</title>
    <desc>Created with Sketch.</desc>
    <defs></defs>
    <g id="Desktop" stroke="none" stroke-width="1" fill="none" fill-rule="evenodd" opacity="0.400000006">
        <g id="1-Home" transform="translate(-355.000000, -15.000000)" fill="#F6F6F6">
            <g id="Header">
                <g id="Hot-Link-Menu">
                    <g id="Fax" transform="translate(355.000000, 15.000000)">
                        <path d="M21.9999676,5 L19.9999676,5 L19.9999676,3 C19.9999676,2.448 20.4489676,2 20.9999676,2 C21.5509676,2 21.9999676,2.448 21.9999676,3 L21.9999676,5 Z M17.9999676,5 L10.9999676,5 L10.9999676,3 L17.9999676,3 L17.9999676,5 Z M17.9999676,8 L10.9999676,8 L10.9999676,6 L17.9999676,6 L17.9999676,8 Z M17.9999676,11 L10.9999676,11 L10.9999676,9 L17.9999676,9 L17.9999676,11 Z M10.3669676,17 C10.7379676,16 11.4859676,15 12.9999676,15 C13.4489676,15 13.9999676,15.552 13.9999676,16 C13.9999676,16.348 14.0769676,16.683 14.1969676,17 L10.3669676,17 Z M20.9999676,0 L11.9999676,0 C10.3459676,0 8.99996758,1.346 8.99996758,3 L8.99996758,12 L13.9999676,12 C15.9999676,12 16.9999676,14 16.9999676,15 L16.9999676,17 C16.4459676,17 15.9999676,16.453 15.9999676,16 C15.9999676,14.458 14.5419676,13 12.9999676,13 L4.99996758,13 C1.22396758,13 0.0669675783,18.567 0.0199675783,18.804 C-0.0400324217,19.098 0.0369675783,19.402 0.226967578,19.634 C0.416967578,19.866 0.699967578,20 0.999967578,20 L8.99996758,20 C9.55196758,20 9.99996758,19.552 9.99996758,19 L16.9999676,19 C18.6539676,19 19.9999676,17.654 19.9999676,16 L19.9999676,7 L22.9999676,7 C23.5519676,7 23.9999676,6.552 23.9999676,6 L23.9999676,3 C23.9999676,1.346 22.6539676,0 20.9999676,0 L20.9999676,0 Z" id="Icon---Fax"></path>
                    </g>
                </g>
            </g>
        </g>
    </g>
</svg>