<?xml version="1.0" encoding="UTF-8"?>
<svg width="20px" height="20px" viewBox="0 0 20 20" version="1.1" xmlns="http://www.w3.org/2000/svg" xmlns:xlink="http://www.w3.org/1999/xlink">
    <!-- Generator: Sketch 50.2 (55047) - http://www.bohemiancoding.com/sketch -->
    <title>Icon - Language</title>
    <desc>Created with Sketch.</desc>
    <defs></defs>
    <g id="Desktop" stroke="none" stroke-width="1" fill="none" fill-rule="evenodd" opacity="0.400000006">
        <g id="1-Home" transform="translate(-1163.000000, -15.000000)" fill="#F6F6F6">
            <g id="Header">
                <g id="Hot-Link-Menu">
                    <g id="Language" transform="translate(1163.000000, 15.000000)">
                        <path d="M8,12 L12,12 L12,8 L8,8 L8,12 Z M8,14 L8,17.747965 C8.63923984,17.912494 9.30940086,18 10,18 C10.6905991,18 11.3607602,17.912494 12,17.747965 L12,14 L8,14 Z M17.747965,12 C17.912494,11.3607602 18,10.6905991 18,10 C18,9.30940086 17.912494,8.63923984 17.747965,8 L14,8 L14,12 L17.747965,12 Z M16.9297424,14 L14,14 L14,16.9297424 C15.214512,16.2271852 16.2271852,15.214512 16.9297424,14 Z M2.25203497,12 L6,12 L6,8 L2.25203497,8 C2.08750601,8.63923984 2,9.30940086 2,10 C2,10.6905991 2.08750601,11.3607602 2.25203497,12 Z M3.07025756,14 C3.77281483,15.214512 4.78548799,16.2271852 6,16.9297424 L6,14 L3.07025756,14 Z M8,6 L12,6 L12,2.25203497 C11.3607602,2.08750601 10.6905991,2 10,2 C9.30940086,2 8.63923984,2.08750601 8,2.25203497 L8,6 Z M16.9297424,6 C16.2271852,4.78548799 15.214512,3.77281483 14,3.07025756 L14,6 L16.9297424,6 Z M3.07025756,6 L6,6 L6,3.07025756 C4.78548799,3.77281483 3.77281483,4.78548799 3.07025756,6 Z M10,20 C4.4771525,20 0,15.5228475 0,10 C0,4.4771525 4.4771525,0 10,0 C15.5228475,0 20,4.4771525 20,10 C20,15.5228475 15.5228475,20 10,20 Z" id="Icon---Language"></path>
                    </g>
                </g>
            </g>
        </g>
    </g>
</svg>