<?xml version="1.0" encoding="UTF-8"?>
<svg width="399px" height="74px" viewBox="0 0 399 74" version="1.1" xmlns="http://www.w3.org/2000/svg" xmlns:xlink="http://www.w3.org/1999/xlink">
    <!-- Generator: Sketch 50.2 (55047) - http://www.bohemiancoding.com/sketch -->
    <title>WS - Logo</title>
    <desc>Created with Sketch.</desc>
    <defs></defs>
    <g id="Desktop" stroke="none" stroke-width="1" fill="none" fill-rule="evenodd">
        <g id="1-Home" transform="translate(-187.000000, -73.000000)">
            <g id="Header">
                <g id="WS---Logo" transform="translate(187.000000, 73.000000)">
                    <g id="Group">
                        <path d="M36.3039423,3.012125 C17.4629,3.012125 2.13605493,18.35525 2.13605493,37.212125 C2.13605493,56.070875 17.4629,71.412125 36.3039423,71.412125 C55.1449845,71.412125 70.4718296,56.070875 70.4718296,37.212125 C70.4718296,18.35525 55.1449845,3.012125 36.3039423,3.012125 M36.3039423,73.549625 C16.2846324,73.549625 0.000561971831,57.25025 0.000561971831,37.212125 C0.000561971831,17.175875 16.2846324,0.874625 36.3039423,0.874625 C56.3213789,0.874625 72.6073225,17.175875 72.6073225,37.212125 C72.6073225,57.25025 56.3213789,73.549625 36.3039423,73.549625" id="Fill-1" fill="#0070BC"></path>
                        <path d="M47.1902732,60.19775 L42.7413296,60.19775 L39.2833296,51.449 L36.3423437,42.659 L33.442569,51.52775 L30.0651183,60.19775 L25.6161746,60.19775 L15.4051465,32.35775 L21.2852451,32.35775 L27.8397099,52.44275 L34.5946113,32.35775 L38.0132732,32.35775 L44.966738,52.44275 L51.3226394,32.35775 L57.202738,32.35775 L47.1902732,60.19775 Z M28.7744563,32.32025 C29.3045831,33.64025 30.2187239,34.62275 31.3407944,35.337125 L29.7054563,40.199 C27.3582873,39.150875 25.5337521,37.3715 24.4041887,34.587125 L28.7744563,32.32025 Z M36.4022873,11.918375 C40.7332169,11.918375 45.2233718,13.152125 47.328893,17.445875 L43.1571887,19.594625 C42.2037099,18.00275 39.5811746,16.4915 36.5615127,16.4915 C32.6689211,16.4915 30.7994282,18.124625 30.7994282,20.190875 C30.7994282,22.617125 33.661738,23.292125 36.9998507,23.689625 C42.7994,24.405875 48.2036958,25.919 48.2036958,32.56025 C48.2036958,36.4115 46.0869352,38.899625 42.9979634,40.23275 L41.3813577,35.562125 C42.3704282,34.894625 42.9979634,33.915875 42.9979634,32.56025 C42.9979634,29.933375 40.2574141,28.860875 36.5615127,28.463375 C30.8799775,27.7865 25.634907,26.27525 25.634907,20.0315 C25.634907,14.303375 31.2771042,11.95775 36.4022873,11.918375 Z M36.3030056,5.1515 C18.6121324,5.1515 4.27061127,19.504625 4.27061127,37.212125 C4.27061127,54.9215 18.6121324,69.2765 36.3030056,69.2765 C53.9938789,69.2765 68.3372732,54.9215 68.3372732,37.212125 C68.3372732,19.504625 53.9938789,5.1515 36.3030056,5.1515 Z" id="Fill-4" fill="#00A7CE"></path>
                        <polygon id="Fill-6" fill="#0070BC" points="30.8653662 43.449125 26.373338 47.945375 27.8400845 52.4435"></polygon>
                        <path d="M46.6908676,27.60875 C47.6406,28.825625 48.2044451,30.425 48.2044451,32.560625 C48.2044451,36.411875 46.0858113,38.898125 42.9968394,40.23125 L41.382107,35.5625 C42.3693042,34.895 42.9987127,33.91625 42.9987127,32.560625 C42.9987127,32.16875 42.9312761,31.814375 42.8151352,31.488125 L39.0236986,35.283125 L44.9656141,52.443125 L51.3233887,32.358125 L57.2034873,32.358125 L47.1910225,60.198125 L42.7402056,60.198125 L39.2840789,51.449375 L36.343093,42.659375 L33.4433183,51.528125 L30.0658676,60.198125 L25.6169239,60.198125 L22.5316986,51.790625 L14.0590366,60.27125 C19.8211211,65.84375 27.6587549,69.276875 36.3037549,69.276875 C53.9946282,69.276875 68.3361493,54.92 68.3361493,37.2125 C68.3361493,28.56125 64.9062479,20.714375 59.3408535,14.946875 L46.6908676,27.60875 Z" id="Fill-8" fill="#0070BC"></path>
                    </g>
                    <g id="Group-2" transform="translate(91.000000, 11.000000)" fill="#4A4A4A">
                        <polygon id="Fill-10" points="0.885578873 0.964125 3.12784648 0.964125 5.94519859 9.724125 8.84497324 0.9285 10.6001986 0.9285 13.4999732 9.724125 16.3154521 0.964125 18.4902831 0.964125 14.3935085 12.86475 12.5895789 12.86475 9.68793099 4.372875 6.78815634 12.86475 4.99921268 12.86475"></polygon>
                        <path d="M19.4816014,11.05875 L20.7291789,9.571875 C21.8587423,10.550625 23.0051648,11.1075 24.4569254,11.1075 C25.7382211,11.1075 26.5474606,10.5 26.5474606,9.6225 L26.5474606,9.590625 C26.5474606,8.746875 26.0754042,8.289375 23.8837141,7.783125 C21.3698268,7.175625 19.9536577,6.433125 19.9536577,4.254375 L19.9536577,4.2225 C19.9536577,2.195625 21.6395732,0.793125 23.984869,0.793125 C25.7045028,0.793125 27.0700944,1.318125 28.2670944,2.28 L27.1543901,3.85125 C26.0922634,3.05625 25.0301366,2.63625 23.9511507,2.63625 C22.7354183,2.63625 22.0273338,3.25875 22.0273338,4.035 L22.0273338,4.06875 C22.0273338,4.981875 22.5668268,5.386875 24.8446859,5.926875 C27.3398408,6.534375 28.6211366,7.42875 28.6211366,9.38625 L28.6211366,9.42 C28.6211366,11.6325 26.8846437,12.94875 24.4063479,12.94875 C22.6024183,12.94875 20.8977704,12.324375 19.4816014,11.05875" id="Fill-12"></path>
                        <polygon id="Fill-14" points="35.1087268 0.964125 37.4034451 0.964125 40.9607268 10.046625 44.5030225 0.964125 46.7452901 0.964125 41.854262 12.86475 40.0166141 12.86475"></polygon>
                        <polygon id="Fill-16" points="48.8822817 12.7805625 50.9559577 12.7805625 50.9559577 0.9643125 48.8822817 0.9643125"></polygon>
                        <path d="M59.4389225,7.69875 L56.1495141,7.69875 L56.1495141,10.940625 L59.5906549,10.940625 C61.0068239,10.940625 61.8666408,10.38375 61.8666408,9.31875 L61.8666408,9.286875 C61.8666408,8.289375 61.0742606,7.69875 59.4389225,7.69875 Z M61.2091338,4.305 C61.2091338,3.376875 60.467331,2.805 59.1354577,2.805 L56.1495141,2.805 L56.1495141,5.941875 L58.9837254,5.941875 C60.3155986,5.941875 61.2091338,5.41875 61.2091338,4.33875 L61.2091338,4.305 Z M54.1095563,0.96375 L59.4052042,0.96375 C60.7539366,0.96375 61.8160634,1.335 62.4904296,2.01 C63.0130634,2.533125 63.2828099,3.174375 63.2828099,3.969375 L63.2828099,4.00125 C63.2828099,5.41875 62.4735704,6.178125 61.5968944,6.635625 C62.9812183,7.108125 63.9403169,7.90125 63.9403169,9.50625 L63.9403169,9.538125 C63.9403169,11.6475 62.2038239,12.78 59.5737958,12.78 L54.1095563,12.78 L54.1095563,0.96375 Z" id="Fill-18"></path>
                        <path d="M71.3916887,6.821625 C72.8752944,6.821625 73.819407,6.045375 73.819407,4.845375 L73.819407,4.8135 C73.819407,3.547875 72.9090127,2.856 71.3748296,2.856 L68.3551676,2.856 L68.3551676,6.821625 L71.3916887,6.821625 Z M66.2814915,0.964125 L71.5434211,0.964125 C73.0270268,0.964125 74.1921817,1.401 74.9489704,2.145375 C75.5727592,2.786625 75.9286746,3.664125 75.9286746,4.6935 L75.9286746,4.72725 C75.9286746,6.66975 74.7635197,7.834125 73.1281817,8.306625 L76.3164352,12.780375 L73.8531254,12.780375 L70.9533507,8.661 L68.3551676,8.661 L68.3551676,12.780375 L66.2814915,12.780375 L66.2814915,0.964125 Z" id="Fill-19"></path>
                        <path d="M85.6211901,8.086875 L83.5812324,3.36 L81.5562606,8.086875 L85.6211901,8.086875 Z M82.6539789,0.879375 L84.5759225,0.879375 L89.7685423,12.78 L87.5768521,12.78 L86.3798521,9.92625 L80.7975986,9.92625 L79.5837394,12.78 L77.4594859,12.78 L82.6539789,0.879375 Z" id="Fill-20"></path>
                        <polygon id="Fill-21" points="93.1727803 2.888625 89.4281746 2.888625 89.4281746 0.964875 99.0079211 0.964875 99.0079211 2.888625 95.2633155 2.888625 95.2633155 12.77925 93.1727803 12.77925"></polygon>
                        <path d="M110.202025,6.9058125 L110.202025,6.8701875 C110.202025,4.5770625 108.531096,2.6683125 106.187673,2.6683125 C103.844251,2.6683125 102.207039,4.5414375 102.207039,6.8383125 L102.207039,6.8701875 C102.207039,9.1670625 103.877969,11.0589375 106.221392,11.0589375 C108.564814,11.0589375 110.202025,9.2026875 110.202025,6.9058125 M100.032208,6.9058125 L100.032208,6.8701875 C100.032208,3.5476875 102.5948,0.7614375 106.221392,0.7614375 C109.847983,0.7614375 112.376856,3.5120625 112.376856,6.8383125 L112.376856,6.8701875 C112.376856,10.1983125 109.814265,12.9826875 106.187673,12.9826875 C102.561082,12.9826875 100.032208,10.2301875 100.032208,6.9058125" id="Fill-22"></path>
                        <path d="M119.995321,6.821625 C121.478927,6.821625 122.423039,6.045375 122.423039,4.845375 L122.423039,4.8135 C122.423039,3.547875 121.512645,2.856 119.978462,2.856 L116.9588,2.856 L116.9588,6.821625 L119.995321,6.821625 Z M114.885124,0.964125 L120.147054,0.964125 C121.630659,0.964125 122.795814,1.401 123.552603,2.145375 C124.176392,2.786625 124.532307,3.664125 124.532307,4.6935 L124.532307,4.72725 C124.532307,6.66975 123.367152,7.834125 121.731814,8.306625 L124.920068,12.780375 L122.456758,12.780375 L119.556983,8.661 L116.9588,8.661 L116.9588,12.780375 L114.885124,12.780375 L114.885124,0.964125 Z" id="Fill-23"></path>
                        <polygon id="Fill-24" points="130.128048 8.12175 125.43933 0.964875 127.902639 0.964875 131.190175 6.17925 134.530161 0.964875 136.907301 0.964875 132.218583 8.071125 132.218583 12.77925 130.128048 12.77925"></polygon>
                        <polygon id="Fill-25" points="143.781341 0.964125 145.991763 0.964125 149.582763 6.54975 153.175637 0.964125 155.384186 0.964125 155.384186 12.780375 153.31051 12.780375 153.31051 4.305375 149.582763 9.876 149.515327 9.876 145.821299 4.339125 145.821299 12.780375 143.781341 12.780375"></polygon>
                        <path d="M165.565992,8.086875 L163.526034,3.36 L161.501062,8.086875 L165.565992,8.086875 Z M162.59878,0.879375 L164.520724,0.879375 L169.715217,12.78 L167.521654,12.78 L166.324654,9.92625 L160.7424,9.92625 L159.528541,12.78 L157.404287,12.78 L162.59878,0.879375 Z" id="Fill-26"></path>
                        <path d="M170.46957,6.9058125 L170.46957,6.8701875 C170.46957,3.5120625 172.981585,0.7614375 176.557599,0.7614375 C178.734303,0.7614375 180.049317,1.5208125 181.177007,2.6008125 L179.845134,4.1364375 C178.901021,3.2589375 177.889472,2.6683125 176.540739,2.6683125 C174.296599,2.6683125 172.644401,4.5245625 172.644401,6.8383125 L172.644401,6.8701875 C172.644401,9.1839375 174.281613,11.0589375 176.540739,11.0589375 C177.990627,11.0589375 178.91788,10.4833125 179.92943,9.5383125 L181.261303,10.8901875 C180.030585,12.1726875 178.681852,12.9826875 176.473303,12.9826875 C173.032162,12.9826875 170.46957,10.2995625 170.46957,6.9058125" id="Fill-27"></path>
                        <polygon id="Fill-28" points="183.433137 0.964125 185.506813 0.964125 185.506813 5.876625 191.139644 5.876625 191.139644 0.964125 193.215193 0.964125 193.215193 12.780375 191.139644 12.780375 191.139644 7.800375 185.506813 7.800375 185.506813 12.780375 183.433137 12.780375"></polygon>
                        <polygon id="Fill-29" points="196.362423 12.7805625 198.436099 12.7805625 198.436099 0.9643125 196.362423 0.9643125"></polygon>
                        <polygon id="Fill-30" points="201.589135 0.964125 203.511079 0.964125 209.835135 9.1335 209.835135 0.964125 211.875093 0.964125 211.875093 12.780375 210.1386 12.780375 203.629093 4.372875 203.629093 12.780375 201.589135 12.780375"></polygon>
                        <polygon id="Fill-31" points="214.908617 0.964125 223.660392 0.964125 223.660392 2.820375 216.982293 2.820375 216.982293 5.8935 222.90173 5.8935 222.90173 7.74975 216.982293 7.74975 216.982293 10.924125 223.744687 10.924125 223.744687 12.780375 214.908617 12.780375"></polygon>
                        <path d="M230.739738,6.9058125 L230.739738,6.8701875 C230.739738,3.5120625 233.251752,0.7614375 236.827766,0.7614375 C239.002597,0.7614375 240.317611,1.5208125 241.449048,2.6008125 L240.117175,4.1364375 C239.171189,3.2589375 238.159639,2.6683125 236.810907,2.6683125 C234.568639,2.6683125 232.914569,4.5245625 232.914569,6.8383125 L232.914569,6.8701875 C232.914569,9.1839375 234.549907,11.0589375 236.810907,11.0589375 C238.260794,11.0589375 239.189921,10.4833125 240.20147,9.5383125 L241.533344,10.8901875 C240.300752,12.1726875 238.95202,12.9826875 236.74347,12.9826875 C233.30233,12.9826875 230.739738,10.2995625 230.739738,6.9058125" id="Fill-32"></path>
                        <path d="M253.013679,6.9058125 L253.013679,6.8701875 C253.013679,4.5770625 251.342749,2.6683125 248.999327,2.6683125 C246.654031,2.6683125 245.018693,4.5414375 245.018693,6.8383125 L245.018693,6.8701875 C245.018693,9.1670625 246.689623,11.0589375 249.033045,11.0589375 C251.378341,11.0589375 253.013679,9.2026875 253.013679,6.9058125 M242.843862,6.9058125 L242.843862,6.8701875 C242.843862,3.5476875 245.406454,0.7614375 249.033045,0.7614375 C252.659637,0.7614375 255.18851,3.5120625 255.18851,6.8383125 L255.18851,6.8701875 C255.18851,10.1983125 252.625918,12.9826875 248.999327,12.9826875 C245.374608,12.9826875 242.843862,10.2301875 242.843862,6.9058125" id="Fill-33"></path>
                        <polygon id="Fill-34" points="256.654507 12.7786875 258.896775 12.7786875 258.896775 10.4499375 256.654507 10.4499375"></polygon>
                        <path d="M260.614535,14.367375 C261.644817,14.164875 262.133732,13.639875 262.064423,12.77925 L261.18962,12.77925 L261.18962,10.4505 L263.431887,10.4505 L263.431887,12.424875 C263.431887,14.299875 262.536479,15.093 260.833704,15.244875 L260.614535,14.367375 Z" id="Fill-35"></path>
                        <polygon id="Fill-36" points="271.15338 0.964125 273.227056 0.964125 273.227056 10.890375 279.433099 10.890375 279.433099 12.780375 271.15338 12.780375"></polygon>
                        <polygon id="Fill-37" points="282.802494 2.888625 279.059762 2.888625 279.059762 0.964875 288.637635 0.964875 288.637635 2.888625 284.89303 2.888625 284.89303 12.77925 282.802494 12.77925"></polygon>
                        <path d="M292.902252,2.855625 L292.902252,10.89 L295.228815,10.89 C297.707111,10.89 299.327463,9.219375 299.327463,6.905625 L299.327463,6.871875 C299.327463,4.558125 297.707111,2.855625 295.228815,2.855625 L292.902252,2.855625 Z M290.828576,0.96375 L295.228815,0.96375 C298.939703,0.96375 301.502294,3.51375 301.502294,6.838125 L301.502294,6.871875 C301.502294,10.198125 298.939703,12.78 295.228815,12.78 L290.828576,12.78 L290.828576,0.96375 Z" id="Fill-38"></path>
                        <polygon id="Fill-39" points="302.966606 12.7786875 305.208873 12.7786875 305.208873 10.4499375 302.966606 10.4499375"></polygon>
                    </g>
                    <g id="Group-3" transform="translate(94.000000, 43.000000)" fill="#4A4A4A">
                        <path d="M4.32390282,18.43 C2.97142394,18.43 1.92990282,18.1 1.20121268,17.441875 C0.470649296,16.781875 0.107240845,15.806875 0.107240845,14.51125 L0.107240845,8.258125 L2.02731127,8.258125 L2.02731127,14.51125 C2.02731127,15.248125 2.22400141,15.82 2.61550845,16.230625 C3.00701549,16.639375 3.57648028,16.84375 4.32390282,16.84375 C5.07132535,16.84375 5.64079014,16.639375 6.03229718,16.230625 C6.42380423,15.82 6.62049437,15.248125 6.62049437,14.51125 L6.62049437,8.258125 L8.54056479,8.258125 L8.54056479,14.51125 C8.54056479,15.806875 8.17715634,16.781875 7.44659296,17.441875 C6.71790282,18.1 5.67638169,18.43 4.32390282,18.43" id="Fill-41"></path>
                        <path d="M13.8620634,16.8626875 C14.5738944,16.8626875 15.1171338,16.7464375 15.4917817,16.5139375 C15.8645563,16.2833125 16.0518803,15.9608125 16.0518803,15.5445625 C16.0518803,15.3195625 15.9825704,15.1189375 15.8476972,14.9483125 C15.7109507,14.7758125 15.5292465,14.6220625 15.3044577,14.4833125 C15.0777958,14.3483125 14.8286549,14.2339375 14.5570352,14.1383125 C14.2835423,14.0426875 14.0044296,13.9470625 13.7196972,13.8533125 C13.2701197,13.7089375 12.8467676,13.5551875 12.4571338,13.3883125 C12.0656268,13.2233125 11.7265704,13.0208125 11.441838,12.7826875 C11.1571056,12.5464375 10.9323169,12.2614375 10.7655986,11.9276875 C10.5988803,11.5958125 10.5164577,11.1926875 10.5164577,10.7183125 C10.5164577,10.3264375 10.6063732,9.9664375 10.784331,9.6383125 C10.9622887,9.3139375 11.2133028,9.0326875 11.5392465,8.8020625 C11.8670634,8.5714375 12.2604437,8.3895625 12.7231338,8.2583125 C13.1858239,8.1289375 13.6972183,8.0633125 14.2535704,8.0633125 C14.907331,8.0633125 15.5105141,8.1345625 16.0687394,8.2770625 C16.6269648,8.4195625 17.1308662,8.6108125 17.5823169,8.8470625 L17.0840352,10.2720625 C16.6681761,10.0451875 16.2410775,9.8858125 15.8027394,9.7920625 C15.3625282,9.6964375 14.8885986,9.6476875 14.3790775,9.6476875 C13.7740211,9.6476875 13.2888521,9.7433125 12.9273169,9.9345625 C12.5657817,10.1239375 12.3859507,10.3901875 12.3859507,10.7351875 C12.3859507,10.9376875 12.4421479,11.1120625 12.5545423,11.2601875 C12.6669366,11.4101875 12.818669,11.5433125 13.0078662,11.6614375 C13.1989366,11.7795625 13.4237254,11.8901875 13.6841056,11.9895625 C13.9444859,12.0926875 14.2292183,12.1901875 14.5383028,12.2858125 C15.0721761,12.4620625 15.5461056,12.6476875 15.9619648,12.8370625 C16.3778239,13.0264375 16.729993,13.2495625 17.0222183,13.5045625 C17.3125704,13.7614375 17.5336127,14.0595625 17.6872183,14.4026875 C17.8426972,14.7495625 17.9195,15.1526875 17.9195,15.6158125 C17.9195,16.4464375 17.5973028,17.1251875 16.949162,17.6464375 C16.3028944,18.1676875 15.3156972,18.4301875 13.9875704,18.4301875 C12.5863873,18.4301875 11.4474577,18.1751875 10.5707817,17.6651875 L11.0334718,16.1858125 C11.4362183,16.3883125 11.8783028,16.5514375 12.3578521,16.6751875 C12.8392746,16.8008125 13.3413028,16.8626875 13.8620634,16.8626875" id="Fill-43"></path>
                        <polygon id="Fill-45" points="9.57328169 6.9405625 17.4390141 6.9405625 17.4390141 5.4443125 9.57328169 5.4443125"></polygon>
                        <path d="M24.1483958,18.43 C22.7959169,18.43 21.7543958,18.1 21.0257056,17.441875 C20.2951423,16.781875 19.9317338,15.806875 19.9317338,14.51125 L19.9317338,8.258125 L21.8518042,8.258125 L21.8518042,14.51125 C21.8518042,15.248125 22.0484944,15.82 22.4400014,16.230625 C22.8315085,16.639375 23.4009732,16.84375 24.1483958,16.84375 C24.8958183,16.84375 25.4652831,16.639375 25.8567901,16.230625 C26.2482972,15.82 26.4449873,15.248125 26.4449873,14.51125 L26.4449873,13.174375 L24.2195789,13.174375 L24.2195789,11.625625 L26.4449873,11.625625 L26.4449873,8.258125 L28.3650577,8.258125 L28.3650577,11.625625 L29.9142268,11.625625 L29.5227197,13.174375 L28.3650577,13.174375 L28.3650577,14.51125 C28.3650577,15.806875 28.0016493,16.781875 27.2710859,17.441875 C26.5423958,18.1 25.5008746,18.43 24.1483958,18.43" id="Fill-47"></path>
                        <path d="M26.2659056,4.981 C26.2659056,5.290375 26.4157648,5.444125 26.7117366,5.444125 L31.0894972,5.444125 L31.0894972,6.940375 L26.3726803,6.940375 C25.7807366,6.940375 25.3143,6.79975 24.9771169,6.512875 C24.6380606,6.227875 24.469469,5.76475 24.469469,5.1235 L24.469469,4.321 L26.2659056,4.321 L26.2659056,4.981 Z" id="Fill-48"></path>
                        <path d="M37.743993,11.82175 C37.743993,11.073625 37.610993,10.52425 37.344993,10.173625 C37.0771197,9.824875 36.6949789,9.648625 36.1966972,9.648625 C35.5560493,9.648625 34.9603592,9.81925 34.4077535,10.154875 C33.8551479,10.49425 33.4018239,10.91425 33.0459085,11.411125 L33.0459085,18.23425 L31.1239648,18.23425 L31.1239648,8.25925 L32.8679507,8.25925 L33.0459085,9.613 C33.2351056,9.423625 33.4561479,9.236125 33.7052887,9.0505 C33.9544296,8.868625 34.2204296,8.70175 34.505162,8.553625 C34.7898944,8.4055 35.0989789,8.2855 35.4305423,8.1955 C35.7621056,8.10925 36.1180211,8.062375 36.4982887,8.062375 C37.4948521,8.062375 38.2722465,8.392375 38.8304718,9.0505 C39.3868239,9.7105 39.6659366,10.616125 39.6659366,11.76925 L39.6659366,18.23425 L37.743993,18.23425 L37.743993,11.82175 Z" id="Fill-49"></path>
                        <path d="M53.3866662,18.2340625 L53.3866662,12.2490625 C53.3866662,11.4878125 53.1768634,10.8653125 52.7553845,10.3796875 C52.3339056,9.8921875 51.7194831,9.6484375 50.9139901,9.6484375 C49.9530183,9.6484375 49.2112155,9.9821875 48.6885817,10.6459375 C48.1659479,11.3115625 47.9055676,12.2190625 47.9055676,13.3703125 C47.9055676,14.0115625 47.9767507,14.5496875 48.1191169,14.9846875 C48.2614831,15.4159375 48.4450606,15.7684375 48.6698493,16.0346875 C48.8965113,16.3028125 49.1475254,16.4903125 49.426638,16.6046875 C49.7057507,16.7171875 49.9811169,16.7734375 50.2546099,16.7734375 C50.4925113,16.7734375 50.7116803,16.7584375 50.9139901,16.7284375 C51.1144268,16.7003125 51.3167366,16.6365625 51.5171732,16.5428125 L51.8730887,17.9846875 C51.6483,18.1046875 51.3916662,18.1946875 51.0994408,18.2621875 C50.8090887,18.3259375 50.4793986,18.3578125 50.1122437,18.3578125 C49.5783704,18.3578125 49.0613563,18.2621875 48.5649479,18.0653125 C48.0666662,17.8703125 47.6245817,17.5665625 47.2386944,17.1559375 C46.852807,16.7471875 46.547469,16.2278125 46.3226803,15.5978125 C46.0960183,14.9696875 45.9836239,14.2253125 45.9836239,13.3703125 C45.9836239,12.6240625 46.0885254,11.9265625 46.2945817,11.2778125 C46.5025113,10.6309375 46.8115958,10.0703125 47.219962,9.5959375 C47.6302014,9.1215625 48.1397225,8.7446875 48.7503986,8.4728125 C49.3629479,8.1990625 50.0654127,8.0621875 50.8596662,8.0621875 C51.5958493,8.0621875 52.2421169,8.1728125 52.8003423,8.3921875 C53.3566944,8.6115625 53.823131,8.9115625 54.1959056,9.2921875 C54.5705535,9.6728125 54.8496662,10.1171875 55.0332437,10.6271875 C55.2168211,11.1390625 55.3086099,11.6846875 55.3086099,12.2659375 L55.3086099,18.2340625 L53.3866662,18.2340625 Z" id="Fill-50"></path>
                        <path d="M52.905431,4.981 C52.905431,5.290375 53.0552901,5.444125 53.351262,5.444125 L57.7290225,5.444125 L57.7290225,6.940375 L53.0122056,6.940375 C52.420262,6.940375 51.9538254,6.79975 51.6166423,6.512875 C51.2775859,6.227875 51.1089944,5.76475 51.1089944,5.1235 L51.1089944,4.321 L52.905431,4.321 L52.905431,4.981 Z" id="Fill-51"></path>
                        <path d="M61.9460592,18.43 C60.5935803,18.43 59.5520592,18.1 58.823369,17.441875 C58.0928056,16.781875 57.7293972,15.806875 57.7293972,14.51125 L57.7293972,8.258125 L59.6494676,8.258125 L59.6494676,14.51125 C59.6494676,15.248125 59.8461577,15.82 60.2376648,16.230625 C60.6291718,16.639375 61.1986366,16.84375 61.9460592,16.84375 C62.6934817,16.84375 63.2629465,16.639375 63.6544535,16.230625 C64.0459606,15.82 64.2426507,15.248125 64.2426507,14.51125 L64.2426507,8.258125 L66.1627211,8.258125 L66.1627211,14.51125 C66.1627211,15.806875 65.7993127,16.781875 65.0687493,17.441875 C64.3400592,18.1 63.298538,18.43 61.9460592,18.43" id="Fill-52"></path>
                        <path d="M72.8726648,18.43 C71.5201859,18.43 70.4786648,18.1 69.7499746,17.441875 C69.0194113,16.781875 68.6560028,15.806875 68.6560028,14.51125 L68.6560028,8.258125 L70.5760732,8.258125 L70.5760732,14.51125 C70.5760732,15.248125 70.7727634,15.82 71.1642704,16.230625 C71.5557775,16.639375 72.1252423,16.84375 72.8726648,16.84375 C73.6200873,16.84375 74.1895521,16.639375 74.5810592,16.230625 C74.9725662,15.82 75.1692563,15.248125 75.1692563,14.51125 L75.1692563,8.258125 L77.0893268,8.258125 L77.0893268,14.51125 C77.0893268,15.806875 76.7259183,16.781875 75.9953549,17.441875 C75.2666648,18.1 74.2251437,18.43 72.8726648,18.43" id="Fill-53"></path>
                        <path d="M85.6150014,18.2340625 L85.6150014,13.6571875 L83.2828183,13.6571875 C82.5353958,13.6571875 81.9397056,13.7846875 81.4938746,14.0396875 C81.0499169,14.2946875 80.8270014,14.7259375 80.8270014,15.3296875 C80.8270014,15.8415625 80.9843535,16.2278125 81.2990577,16.4884375 C81.613762,16.7490625 81.9959028,16.8803125 82.4473535,16.8803125 C82.6852549,16.8803125 82.9306493,16.8540625 83.1854099,16.7996875 C83.4401704,16.7471875 83.6799451,16.6721875 83.906607,16.5765625 L84.2081986,18.0559375 C83.6387338,18.2921875 82.9868465,18.4121875 82.2506634,18.4121875 C81.7879732,18.4121875 81.3552549,18.3503125 80.9525085,18.2246875 C80.5478887,18.1009375 80.197593,17.9096875 79.9016211,17.6546875 C79.6056493,17.3996875 79.3714944,17.0790625 79.1991563,16.6946875 C79.0268183,16.3084375 78.9406493,15.8584375 78.9406493,15.3484375 C78.9406493,13.1884375 80.448607,12.1065625 83.4607761,12.1065625 L85.6150014,12.1065625 L85.6150014,11.8215625 C85.6150014,11.1446875 85.4426634,10.6046875 85.0979873,10.2015625 C84.7551845,9.7965625 84.172607,9.5959375 83.3540014,9.5959375 C82.6421704,9.5959375 82.005269,9.7009375 81.4414239,9.9146875 C80.8775789,10.1303125 80.369931,10.3890625 79.9203535,10.6984375 L79.2965648,9.3634375 C79.5101141,9.2096875 79.7630014,9.0521875 80.0533535,8.8928125 C80.3437056,8.7315625 80.6677761,8.5909375 81.0236915,8.4728125 C81.379607,8.3528125 81.7617479,8.2571875 82.1719873,8.1803125 C82.5803535,8.1015625 83.0093254,8.0621875 83.4607761,8.0621875 C84.7551845,8.0621875 85.7536211,8.4015625 86.4598324,9.0784375 C87.1660437,9.7553125 87.5182127,10.6646875 87.5182127,11.8028125 L87.5182127,18.2340625 L85.6150014,18.2340625 Z" id="Fill-54"></path>
                        <polygon id="Fill-55" points="79.6530423 6.9405625 87.5187746 6.9405625 87.5187746 5.4443125 79.6530423 5.4443125"></polygon>
                        <path d="M89.7612296,15.9728125 C90.1752155,16.2221875 90.6229197,16.4284375 91.1043423,16.5953125 C91.5857648,16.7621875 92.0915394,16.8446875 92.6254127,16.8446875 C93.503962,16.8446875 94.1895676,16.5484375 94.6803563,15.9540625 C95.1730183,15.3615625 95.4202859,14.4690625 95.4202859,13.2821875 C95.4202859,12.0240625 95.1730183,11.1034375 94.6803563,10.5221875 C94.1895676,9.9390625 93.503962,9.6484375 92.6254127,9.6484375 C92.0559479,9.6484375 91.5464268,9.7328125 91.0949761,9.8978125 C90.6453986,10.0646875 90.1939479,10.2971875 89.7424972,10.5934375 L89.2985394,9.1140625 C89.7837085,8.8065625 90.3306944,8.5534375 90.9357507,8.3565625 C91.540807,8.1615625 92.1627225,8.0621875 92.8052437,8.0621875 C94.2626239,8.0621875 95.3846944,8.5103125 96.1677085,9.3990625 C96.9507225,10.2896875 97.3422296,11.5440625 97.3422296,13.1584375 C97.3422296,14.9040625 96.9394831,16.2184375 96.1321169,17.1034375 C95.3247507,17.9865625 94.1858211,18.4309375 92.7153282,18.4309375 C91.3384972,18.4309375 90.2051873,18.1215625 89.3153986,17.5028125 L89.7612296,15.9728125 Z" id="Fill-56"></path>
                        <polygon id="Fill-57" points="103.71293 18.2336875 105.634873 18.2336875 105.634873 8.2586875 103.71293 8.2586875"></polygon>
                        <path d="M109.993527,14.0666875 C109.733146,14.0666875 109.60202,14.2073125 109.60202,14.4941875 L109.60202,14.7604375 C109.60202,16.1498125 110.396273,16.8435625 111.986654,16.8435625 C112.876442,16.8435625 113.58078,16.5529375 114.095921,15.9735625 C114.611062,15.3904375 114.869569,14.4585625 114.869569,13.1741875 C114.869569,12.0360625 114.603569,11.1623125 114.069696,10.5566875 C113.535823,9.9510625 112.816499,9.6491875 111.91547,9.6491875 C111.168048,9.6491875 110.499301,9.7673125 109.905485,10.0054375 C109.311668,10.2416875 108.789034,10.5323125 108.339456,10.8773125 L107.715668,9.4523125 C107.940456,9.2741875 108.20271,9.1035625 108.498682,8.9366875 C108.794654,8.7698125 109.124344,8.6216875 109.485879,8.4904375 C109.847414,8.3591875 110.238921,8.2560625 110.6604,8.1791875 C111.081879,8.1004375 111.523963,8.0629375 111.986654,8.0629375 C112.734076,8.0629375 113.404696,8.1791875 113.998513,8.4098125 C114.590456,8.6404375 115.096231,8.9798125 115.510217,9.4260625 C115.926076,9.8723125 116.242654,10.4141875 116.463696,11.0573125 C116.682865,11.6966875 116.791513,12.4279375 116.791513,13.2473125 C116.791513,14.9685625 116.3794,16.2641875 115.555175,17.1304375 C114.730949,17.9966875 113.577034,18.4298125 112.093428,18.4298125 C110.611696,18.4298125 109.510231,18.1054375 108.79278,17.4604375 C108.07533,16.8116875 107.715668,15.9116875 107.715668,14.7604375 L107.715668,14.3498125 C107.715668,13.1029375 108.320724,12.4804375 109.530837,12.4804375 L111.471513,12.4804375 L111.471513,14.0666875 L109.993527,14.0666875 Z" id="Fill-58"></path>
                        <path d="M124.854123,18.2340625 L124.854123,13.6571875 L122.521939,13.6571875 C121.774517,13.6571875 121.178827,13.7846875 120.732996,14.0396875 C120.289038,14.2946875 120.066123,14.7259375 120.066123,15.3296875 C120.066123,15.8415625 120.223475,16.2278125 120.538179,16.4884375 C120.852883,16.7490625 121.235024,16.8803125 121.686475,16.8803125 C121.924376,16.8803125 122.16977,16.8540625 122.424531,16.7996875 C122.679292,16.7471875 122.919066,16.6721875 123.145728,16.5765625 L123.44732,18.0559375 C122.877855,18.2921875 122.225968,18.4121875 121.489785,18.4121875 C121.027094,18.4121875 120.594376,18.3503125 120.19163,18.2246875 C119.78701,18.1009375 119.436714,17.9096875 119.140742,17.6546875 C118.84477,17.3996875 118.610615,17.0790625 118.438277,16.6946875 C118.265939,16.3084375 118.17977,15.8584375 118.17977,15.3484375 C118.17977,13.1884375 119.687728,12.1065625 122.699897,12.1065625 L124.854123,12.1065625 L124.854123,11.8215625 C124.854123,11.5009375 124.812911,11.2065625 124.728615,10.9384375 C124.646193,10.6721875 124.515066,10.4378125 124.337108,10.2353125 C124.159151,10.0346875 123.928742,9.8771875 123.64401,9.7628125 C123.359277,9.6521875 123.014601,9.5959375 122.611855,9.5959375 C121.888785,9.5959375 121.24439,9.7009375 120.680545,9.9146875 C120.1167,10.1303125 119.609052,10.3890625 119.159475,10.6984375 L118.535686,9.3634375 C118.749235,9.1984375 119.007742,9.0371875 119.311207,8.8834375 C119.612799,8.7296875 119.942489,8.5871875 120.298404,8.4634375 C120.65432,8.3396875 121.032714,8.2421875 121.437334,8.1709375 C121.84008,8.0996875 122.248446,8.0621875 122.664306,8.0621875 C123.353658,8.0621875 123.939982,8.1765625 124.427024,8.4015625 L125.120123,7.5653125 L127.255615,7.5653125 L125.831954,9.2921875 C126.141038,9.6128125 126.37332,9.9878125 126.526925,10.4134375 C126.680531,10.8428125 126.757334,11.3059375 126.757334,11.8028125 L126.757334,18.2340625 L124.854123,18.2340625 Z" id="Fill-59"></path>
                        <path d="M134.106989,18.2340625 L134.106989,6.6034375 C134.106989,5.8534375 134.234369,5.2103125 134.48913,4.6703125 C134.74389,4.1303125 135.114792,3.6990625 135.601834,3.3784375 L131.686763,3.3784375 L131.686763,1.8296875 L137.789777,1.8296875 L137.789777,3.2003125 C137.209073,3.4609375 136.772608,3.8603125 136.482256,4.3928125 C136.191904,4.9271875 136.047665,5.5815625 136.047665,6.3521875 L136.047665,18.2340625 L134.106989,18.2340625 Z" id="Fill-60"></path>
                        <path d="M138.39577,15.9728125 C138.809756,16.2221875 139.257461,16.4284375 139.738883,16.5953125 C140.220306,16.7621875 140.72608,16.8446875 141.259954,16.8446875 C142.138503,16.8446875 142.824108,16.5484375 143.314897,15.9540625 C143.807559,15.3615625 144.054827,14.4690625 144.054827,13.2821875 C144.054827,12.0240625 143.807559,11.1034375 143.314897,10.5221875 C142.824108,9.9390625 142.138503,9.6484375 141.259954,9.6484375 C140.690489,9.6484375 140.180968,9.7328125 139.729517,9.8978125 C139.279939,10.0646875 138.828489,10.2971875 138.377038,10.5934375 L137.93308,9.1140625 C138.418249,8.8065625 138.965235,8.5534375 139.570292,8.3565625 C140.175348,8.1615625 140.797263,8.0621875 141.439785,8.0621875 C142.897165,8.0621875 144.019235,8.5103125 144.802249,9.3990625 C145.585263,10.2896875 145.97677,11.5440625 145.97677,13.1584375 C145.97677,14.9040625 145.574024,16.2184375 144.766658,17.1034375 C143.959292,17.9865625 142.820362,18.4309375 141.349869,18.4309375 C139.973038,18.4309375 138.839728,18.1215625 137.949939,17.5028125 L138.39577,15.9728125 Z" id="Fill-61"></path>
                        <path d="M152.240321,18.43 C150.887842,18.43 149.846321,18.1 149.117631,17.441875 C148.387068,16.781875 148.023659,15.806875 148.023659,14.51125 L148.023659,8.258125 L149.94373,8.258125 L149.94373,14.51125 C149.94373,15.248125 150.14042,15.82 150.531927,16.230625 C150.923434,16.639375 151.492899,16.84375 152.240321,16.84375 C152.987744,16.84375 153.557208,16.639375 153.948715,16.230625 C154.340223,15.82 154.536913,15.248125 154.536913,14.51125 L154.536913,8.258125 L156.456983,8.258125 L156.456983,14.51125 C156.456983,15.806875 156.093575,16.781875 155.363011,17.441875 C154.634321,18.1 153.5928,18.43 152.240321,18.43" id="Fill-62"></path>
                        <path d="M161.778482,16.8626875 C162.490313,16.8626875 163.033552,16.7464375 163.4082,16.5139375 C163.780975,16.2833125 163.968299,15.9608125 163.968299,15.5445625 C163.968299,15.3195625 163.898989,15.1189375 163.764115,14.9483125 C163.627369,14.7758125 163.445665,14.6220625 163.220876,14.4833125 C162.994214,14.3483125 162.745073,14.2339375 162.473454,14.1383125 C162.199961,14.0426875 161.920848,13.9470625 161.636115,13.8533125 C161.186538,13.7089375 160.763186,13.5551875 160.373552,13.3883125 C159.982045,13.2233125 159.642989,13.0208125 159.358256,12.7826875 C159.073524,12.5464375 158.848735,12.2614375 158.682017,11.9276875 C158.515299,11.5958125 158.432876,11.1926875 158.432876,10.7183125 C158.432876,10.3264375 158.522792,9.9664375 158.700749,9.6383125 C158.878707,9.3139375 159.129721,9.0326875 159.455665,8.8020625 C159.783482,8.5714375 160.176862,8.3895625 160.639552,8.2583125 C161.102242,8.1289375 161.613637,8.0633125 162.169989,8.0633125 C162.823749,8.0633125 163.426932,8.1345625 163.985158,8.2770625 C164.543383,8.4195625 165.047285,8.6108125 165.498735,8.8470625 L165.000454,10.2720625 C164.584594,10.0451875 164.157496,9.8858125 163.719158,9.7920625 C163.278946,9.6964375 162.805017,9.6476875 162.295496,9.6476875 C161.690439,9.6476875 161.20527,9.7433125 160.843735,9.9345625 C160.4822,10.1239375 160.302369,10.3901875 160.302369,10.7351875 C160.302369,10.9376875 160.358566,11.1120625 160.470961,11.2601875 C160.583355,11.4101875 160.735087,11.5433125 160.924285,11.6614375 C161.115355,11.7795625 161.340144,11.8901875 161.600524,11.9895625 C161.860904,12.0926875 162.145637,12.1901875 162.454721,12.2858125 C162.988594,12.4620625 163.462524,12.6476875 163.878383,12.8370625 C164.294242,13.0264375 164.646411,13.2495625 164.938637,13.5045625 C165.228989,13.7614375 165.450031,14.0595625 165.603637,14.4026875 C165.759115,14.7495625 165.835918,15.1526875 165.835918,15.6158125 C165.835918,16.4464375 165.513721,17.1251875 164.86558,17.6464375 C164.219313,18.1676875 163.232115,18.4301875 161.903989,18.4301875 C160.502806,18.4301875 159.363876,18.1751875 158.4872,17.6651875 L158.94989,16.1858125 C159.352637,16.3883125 159.794721,16.5514375 160.27427,16.6751875 C160.755693,16.8008125 161.257721,16.8626875 161.778482,16.8626875" id="Fill-63"></path>
                        <path d="M171.993444,18.2340625 L171.993444,11.8215625 C171.993444,10.3740625 171.369655,9.6484375 170.123951,9.6484375 C169.578838,9.6484375 169.054331,9.7496875 168.55043,9.9503125 C168.046528,10.1528125 167.604444,10.3890625 167.224176,10.6646875 L166.725894,9.2565625 C167.141754,8.9490625 167.668134,8.6715625 168.310655,8.4296875 C168.94943,8.1859375 169.61443,8.0621875 170.303782,8.0621875 C171.489542,8.0621875 172.386824,8.4015625 172.999373,9.0784375 C173.610049,9.7553125 173.915387,10.6946875 173.915387,11.8928125 L173.915387,18.2340625 L171.993444,18.2340625 Z" id="Fill-64"></path>
                        <path d="M176.994806,18.2340625 L176.994806,7.4209375 C176.994806,6.9109375 176.919876,6.4665625 176.77189,6.0859375 C176.623904,5.7053125 176.445946,5.3828125 176.23989,5.1146875 C176.030087,4.8465625 175.816538,4.6346875 175.597369,4.4734375 C175.3782,4.3140625 175.190876,4.2053125 175.03727,4.1434375 L175.001679,3.6803125 C175.381946,3.0296875 175.949538,2.5084375 176.710073,2.1221875 C177.468735,1.7359375 178.341665,1.5446875 179.325115,1.5446875 C180.061299,1.5446875 180.666355,1.5971875 181.142158,1.7040625 C181.616087,1.8109375 182.048806,1.9421875 182.440313,2.0959375 L182.136848,3.6990625 C181.720989,3.4853125 181.290144,3.3353125 180.838693,3.2453125 C180.389115,3.1553125 179.924552,3.1121875 179.450623,3.1121875 C178.881158,3.1121875 178.388496,3.1871875 177.972637,3.3353125 C177.558651,3.4834375 177.243946,3.6746875 177.030397,3.9128125 C177.635454,4.2578125 178.103763,4.7415625 178.4372,5.3659375 C178.76689,5.9884375 178.933608,6.7215625 178.933608,7.5653125 L178.933608,18.2340625 L176.994806,18.2340625 Z" id="Fill-65"></path>
                        <path d="M188.188535,11.82175 C188.188535,11.073625 188.055535,10.52425 187.787662,10.173625 C187.521662,9.824875 187.137648,9.648625 186.641239,9.648625 C186.000592,9.648625 185.404901,9.81925 184.852296,10.154875 C184.301563,10.49425 183.848239,10.91425 183.490451,11.411125 L183.490451,18.23425 L181.568507,18.23425 L181.568507,8.25925 L183.312493,8.25925 L183.490451,9.613 C183.681521,9.423625 183.90069,9.236125 184.149831,9.0505 C184.398972,8.868625 184.664972,8.70175 184.949704,8.553625 C185.234437,8.4055 185.543521,8.2855 185.876958,8.1955 C186.206648,8.10925 186.564437,8.062375 186.942831,8.062375 C187.939394,8.062375 188.716789,8.392375 189.275014,9.0505 C189.831366,9.7105 190.110479,10.616125 190.110479,11.76925 L190.110479,18.23425 L188.188535,18.23425 L188.188535,11.82175 Z" id="Fill-66"></path>
                        <path d="M195.432727,16.8626875 C196.144558,16.8626875 196.687797,16.7464375 197.060572,16.5139375 C197.433346,16.2833125 197.62067,15.9608125 197.62067,15.5445625 C197.62067,15.3195625 197.553234,15.1189375 197.416487,14.9483125 C197.279741,14.7758125 197.09991,14.6220625 196.875121,14.4833125 C196.646586,14.3483125 196.399318,14.2339375 196.125825,14.1383125 C195.854206,14.0426875 195.575093,13.9470625 195.290361,13.8533125 C194.83891,13.7089375 194.417431,13.5551875 194.025924,13.3883125 C193.634417,13.2233125 193.295361,13.0208125 193.012501,12.7826875 C192.727769,12.5464375 192.50298,12.2614375 192.336262,11.9276875 C192.169544,11.5958125 192.087121,11.1926875 192.087121,10.7183125 C192.087121,10.3264375 192.175163,9.9664375 192.353121,9.6383125 C192.531079,9.3139375 192.783966,9.0326875 193.10991,8.8020625 C193.437727,8.5714375 193.831107,8.3895625 194.293797,8.2583125 C194.756487,8.1289375 195.266008,8.0633125 195.824234,8.0633125 C196.476121,8.0633125 197.081177,8.1345625 197.639403,8.2770625 C198.197628,8.4195625 198.699656,8.6108125 199.151107,8.8470625 L198.652825,10.2720625 C198.236966,10.0451875 197.811741,9.8858125 197.37153,9.7920625 C196.933192,9.6964375 196.459262,9.6476875 195.947868,9.6476875 C195.342811,9.6476875 194.859515,9.7433125 194.49798,9.9345625 C194.136445,10.1239375 193.954741,10.3901875 193.954741,10.7351875 C193.954741,10.9376875 194.010938,11.1120625 194.125206,11.2601875 C194.235727,11.4101875 194.387459,11.5433125 194.57853,11.6614375 C194.767727,11.7795625 194.994389,11.8901875 195.252896,11.9895625 C195.515149,12.0926875 195.799882,12.1901875 196.107093,12.2858125 C196.642839,12.4620625 197.116769,12.6476875 197.532628,12.8370625 C197.948487,13.0264375 198.298783,13.2495625 198.591008,13.5045625 C198.881361,13.7614375 199.104276,14.0595625 199.257882,14.4026875 C199.411487,14.7495625 199.490163,15.1526875 199.490163,15.6158125 C199.490163,16.4464375 199.166093,17.1251875 198.519825,17.6464375 C197.873558,18.1676875 196.884487,18.4301875 195.556361,18.4301875 C194.155177,18.4301875 193.018121,18.1751875 192.139572,17.6651875 L192.602262,16.1858125 C193.005008,16.3883125 193.447093,16.5514375 193.928515,16.6751875 C194.408065,16.8008125 194.910093,16.8626875 195.432727,16.8626875" id="Fill-67"></path>
                        <polygon id="Fill-68" points="191.142821 6.9401875 191.142821 5.4439375 197.247708 5.4439375 197.247708 3.7883125 198.989821 3.7883125 198.989821 6.9401875"></polygon>
                        <polygon id="Fill-69" points="197.247521 2.8793125 198.991507 2.8793125 198.991507 0.2261875 197.247521 0.2261875"></polygon>
                        <path d="M209.595915,18.2336875 L211.501,18.2336875 L211.501,8.2586875 L209.595915,8.2586875 L209.595915,18.2336875 Z M205.825085,18.2336875 L207.730169,18.2336875 L207.730169,8.2586875 L205.825085,8.2586875 L205.825085,18.2336875 Z" id="Fill-70"></path>
                        <path d="M220.54219,8.2585 L222.462261,8.2585 L222.462261,14.582875 C222.462261,15.816625 222.170035,16.76725 221.583711,17.432875 C220.995514,18.0985 220.14319,18.430375 219.028613,18.430375 C218.328021,18.430375 217.726711,18.2785 217.22281,17.976625 C216.718908,17.672875 216.312415,17.312875 216.003331,16.896625 L215.825373,18.2335 L214.081387,18.2335 L214.081387,8.2585 L216.003331,8.2585 L216.003331,15.02725 C216.241232,15.526 216.600894,15.9535 217.087937,16.30975 C217.574979,16.666 218.097613,16.844125 218.655838,16.844125 C219.912782,16.844125 220.54219,16.0735 220.54219,14.530375 L220.54219,8.2585 Z" id="Fill-71"></path>
                        <path d="M226.626472,14.9749375 C226.626472,15.5918125 226.78757,16.0643125 227.107894,16.3905625 C227.428218,16.7186875 227.9265,16.8818125 228.602739,16.8818125 C229.254627,16.8818125 229.741669,16.7261875 230.061993,16.4186875 C230.382317,16.1074375 230.543415,15.5674375 230.543415,14.7949375 L230.543415,12.9799375 C230.543415,12.5393125 230.45912,12.2243125 230.292401,12.0368125 C230.125683,11.8455625 229.889655,11.7499375 229.58057,11.7499375 L229.278979,11.7499375 L228.994246,11.0018125 L230.880599,8.2586875 L232.926176,8.2586875 L230.91619,10.8611875 C231.39012,10.9905625 231.766641,11.2455625 232.047627,11.6261875 C232.324866,12.0068125 232.463486,12.4624375 232.463486,12.9968125 L232.463486,14.7799375 C232.463486,15.9536875 232.158148,16.8574375 231.547472,17.4855625 C230.936796,18.1155625 229.955218,18.4305625 228.602739,18.4305625 C227.2615,18.4305625 226.279923,18.1155625 225.656134,17.4855625 C225.034218,16.8574375 224.721387,16.0136875 224.721387,14.9561875 L224.721387,13.8161875 C224.721387,13.4505625 224.811303,13.1205625 224.989261,12.8280625 C225.169092,12.5374375 225.360162,12.2655625 225.569965,12.0086875 C225.776021,11.7536875 225.967092,11.5118125 226.146923,11.2868125 C226.32488,11.0618125 226.414796,10.8293125 226.414796,10.5930625 L226.414796,10.2536875 C226.414796,9.9686875 226.27243,9.8261875 225.985824,9.8261875 L224.830035,9.8261875 L224.830035,8.2586875 L226.218106,8.2586875 C226.988007,8.2586875 227.520007,8.4199375 227.810359,8.7405625 C228.100711,9.0611875 228.246824,9.5130625 228.246824,10.0924375 L228.246824,10.5743125 C228.246824,10.9080625 228.162528,11.2099375 227.99581,11.4836875 C227.832838,11.7555625 227.643641,12.0180625 227.437585,12.2674375 C227.227782,12.5149375 227.042331,12.7661875 226.877486,13.0155625 C226.710768,13.2649375 226.626472,13.5311875 226.626472,13.8161875 L226.626472,14.9749375 Z" id="Fill-72"></path>
                        <path d="M236.609152,14.9749375 C236.609152,15.5918125 236.770251,16.0643125 237.090575,16.3905625 C237.410899,16.7186875 237.90918,16.8818125 238.58542,16.8818125 C239.237307,16.8818125 239.724349,16.7261875 240.044673,16.4186875 C240.364997,16.1074375 240.526096,15.5674375 240.526096,14.7949375 L240.526096,12.9799375 C240.526096,12.5393125 240.4418,12.2243125 240.275082,12.0368125 C240.108363,11.8455625 239.872335,11.7499375 239.563251,11.7499375 L239.261659,11.7499375 L238.976927,11.0018125 L240.863279,8.2586875 L242.908856,8.2586875 L240.89887,10.8611875 C241.3728,10.9905625 241.749321,11.2455625 242.030307,11.6261875 C242.307546,12.0068125 242.446166,12.4624375 242.446166,12.9968125 L242.446166,14.7799375 C242.446166,15.9536875 242.140828,16.8574375 241.530152,17.4855625 C240.919476,18.1155625 239.937899,18.4305625 238.58542,18.4305625 C237.24418,18.4305625 236.262603,18.1155625 235.638814,17.4855625 C235.016899,16.8574375 234.704068,16.0136875 234.704068,14.9561875 L234.704068,13.8161875 C234.704068,13.4505625 234.793983,13.1205625 234.971941,12.8280625 C235.151772,12.5374375 235.342842,12.2655625 235.552645,12.0086875 C235.758701,11.7536875 235.949772,11.5118125 236.129603,11.2868125 C236.307561,11.0618125 236.397476,10.8293125 236.397476,10.5930625 L236.397476,10.2536875 C236.397476,9.9686875 236.25511,9.8261875 235.968504,9.8261875 L234.812715,9.8261875 L234.812715,8.2586875 L236.200786,8.2586875 C236.970687,8.2586875 237.502687,8.4199375 237.793039,8.7405625 C238.083392,9.0611875 238.229504,9.5130625 238.229504,10.0924375 L238.229504,10.5743125 C238.229504,10.9080625 238.145208,11.2099375 237.97849,11.4836875 C237.815518,11.7555625 237.626321,12.0180625 237.420265,12.2674375 C237.210462,12.5149375 237.025011,12.7661875 236.860166,13.0155625 C236.693448,13.2649375 236.609152,13.5311875 236.609152,13.8161875 L236.609152,14.9749375 Z" id="Fill-73"></path>
                        <polygon id="Fill-74" points="234.562263 6.9401875 234.562263 5.4439375 240.667151 5.4439375 240.667151 3.7883125 242.409263 3.7883125 242.409263 6.9401875"></polygon>
                        <path d="M246.842472,14.7075625 C246.842472,15.4669375 246.996077,16.0125625 247.305162,16.3463125 C247.612373,16.6781875 248.080683,16.8450625 248.710092,16.8450625 C249.268317,16.8450625 249.792824,16.6706875 250.285486,16.3181875 C250.778148,15.9694375 251.141556,15.5381875 251.379458,15.0281875 L251.379458,8.2594375 L253.301401,8.2594375 L253.301401,18.2344375 L251.559289,18.2344375 L251.379458,16.8975625 C251.072246,17.3138125 250.658261,17.6738125 250.14312,17.9756875 C249.626106,18.2775625 248.994824,18.4294375 248.247401,18.4294375 C247.168415,18.4294375 246.342317,18.1275625 245.774725,17.5219375 C245.205261,16.9163125 244.920528,15.9956875 244.920528,14.7600625 L244.920528,8.2594375 L246.842472,8.2594375 L246.842472,14.7075625 Z" id="Fill-75"></path>
                        <path d="M261.826514,18.2340625 L260.901134,14.4746875 C260.84119,14.2028125 260.681965,14.0659375 260.419711,14.0659375 L259.743472,14.0659375 L259.743472,12.4815625 L260.792486,12.4815625 C261.279528,12.4815625 261.665415,12.5715625 261.950148,12.7571875 C262.23488,12.9409375 262.44281,13.2990625 262.572063,13.8334375 L263.250176,16.6478125 L263.463725,16.6478125 C263.770937,16.6365625 264.066908,16.5428125 264.353514,16.3646875 C264.638246,16.1846875 264.893007,15.9390625 265.117796,15.6240625 C265.342585,15.3090625 265.522415,14.9265625 265.651669,14.4746875 C265.780923,14.0246875 265.846486,13.5071875 265.846486,12.9259375 C265.846486,11.7746875 265.604838,10.9384375 265.117796,10.4228125 C264.630754,9.9071875 263.943275,9.6484375 263.053486,9.6484375 C262.43719,9.6484375 261.828387,9.7609375 261.230824,9.9878125 C260.629514,10.2128125 260.093768,10.5334375 259.617965,10.9478125 L259.031641,9.5228125 C259.529923,9.1215625 260.129359,8.7746875 260.829951,8.4915625 C261.528669,8.2046875 262.289204,8.0621875 263.10781,8.0621875 C264.638246,8.0621875 265.795908,8.4934375 266.586415,9.3559375 C267.375049,10.2165625 267.770303,11.4109375 267.770303,12.9446875 C267.770303,13.7040625 267.656035,14.4071875 267.431246,15.0559375 C267.206458,15.7009375 266.897373,16.2596875 266.505866,16.7284375 C266.114359,17.1971875 265.651669,17.5665625 265.117796,17.8328125 C264.583923,18.1009375 264.008838,18.2340625 263.392542,18.2340625 L261.826514,18.2340625 Z" id="Fill-76"></path>
                        <path d="M273.945999,18.2340625 L273.945999,11.8215625 C273.945999,10.3740625 273.32221,9.6484375 272.076506,9.6484375 C271.531393,9.6484375 271.006886,9.7496875 270.501111,9.9503125 C269.99721,10.1528125 269.555125,10.3890625 269.174858,10.6646875 L268.676576,9.2565625 C269.092435,8.9490625 269.620689,8.6715625 270.261337,8.4296875 C270.901985,8.1859375 271.565111,8.0621875 272.254463,8.0621875 C273.440224,8.0621875 274.339379,8.4015625 274.950055,9.0784375 C275.560731,9.7553125 275.866069,10.6946875 275.866069,11.8928125 L275.866069,18.2340625 L273.945999,18.2340625 Z M266.310675,6.0503125 C266.512985,6.0503125 266.685323,5.9771875 266.825815,5.8271875 C266.968182,5.6790625 267.039365,5.5046875 267.039365,5.3021875 C267.039365,5.0996875 266.968182,4.9271875 266.825815,4.7846875 C266.685323,4.6440625 266.512985,4.5728125 266.310675,4.5728125 C266.108365,4.5728125 265.941646,4.6440625 265.803027,4.7846875 C265.668154,4.9271875 265.598844,5.0996875 265.598844,5.3021875 C265.598844,5.5046875 265.668154,5.6790625 265.803027,5.8271875 C265.941646,5.9771875 266.108365,6.0503125 266.310675,6.0503125 Z M266.310675,7.2071875 C266.050294,7.2071875 265.803027,7.1621875 265.572618,7.0665625 C265.340337,6.9709375 265.143646,6.8378125 264.976928,6.6653125 C264.81021,6.4928125 264.67721,6.2940625 264.576055,6.0690625 C264.4749,5.8440625 264.424323,5.5928125 264.424323,5.3190625 C264.424323,4.7846875 264.606027,4.3403125 264.967562,3.9840625 C265.329097,3.6278125 265.776801,3.4496875 266.310675,3.4496875 C266.844548,3.4496875 267.292252,3.6278125 267.655661,3.9840625 C268.017196,4.3403125 268.197027,4.7846875 268.197027,5.3190625 C268.197027,5.5928125 268.146449,5.8440625 268.047168,6.0690625 C267.946013,6.2940625 267.813013,6.4928125 267.646294,6.6653125 C267.479576,6.8378125 267.279139,6.9709375 267.048731,7.0665625 C266.818323,7.1621875 266.571055,7.2071875 266.310675,7.2071875 Z" id="Fill-77"></path>
                        <path d="M284.854246,18.2340625 L284.854246,11.9996875 C284.854246,11.2159375 284.650063,10.6271875 284.239824,10.2353125 C283.829585,9.8434375 283.252627,9.6484375 282.505204,9.6484375 C282.207359,9.6484375 281.9245,9.6840625 281.651007,9.7553125 C281.377514,9.8265625 281.1265,9.9278125 280.894218,10.0590625 C280.66381,10.1884375 280.459627,10.3403125 280.287289,10.5128125 C280.116824,10.6853125 279.989444,10.8653125 279.905148,11.0565625 L281.330683,12.3034375 C280.986007,12.4440625 280.7275,12.6484375 280.555162,12.9071875 C280.382824,13.1696875 280.296655,13.5071875 280.296655,13.9234375 L280.296655,18.2340625 L278.376585,18.2340625 L278.376585,14.0303125 C278.376585,13.6740625 278.462754,13.3459375 278.635092,13.0403125 C278.805556,12.7384375 279.035965,12.5040625 279.318824,12.3371875 L277.87643,11.1278125 C277.985077,10.7359375 278.178021,10.3553125 278.455261,9.9878125 C278.734373,9.6184375 279.075303,9.2921875 279.479923,9.0071875 C279.882669,8.7221875 280.343486,8.4934375 280.858627,8.3209375 C281.375641,8.1484375 281.928246,8.0621875 282.522063,8.0621875 C283.209542,8.0621875 283.820218,8.1615625 284.354092,8.3565625 C284.889838,8.5534375 285.333796,8.8215625 285.689711,9.1665625 C286.045627,9.5134375 286.315373,9.9240625 286.500824,10.4059375 C286.684401,10.8859375 286.774317,11.4184375 286.774317,11.9996875 L286.774317,18.2340625 L284.854246,18.2340625 Z" id="Fill-78"></path>
                        <path d="M284.444569,4.981 C284.444569,5.290375 284.592555,5.444125 284.888527,5.444125 L289.266287,5.444125 L289.266287,6.940375 L284.551344,6.940375 C283.957527,6.940375 283.49109,6.79975 283.153907,6.512875 C282.816724,6.227875 282.646259,5.76475 282.646259,5.1235 L282.646259,4.321 L284.444569,4.321 L284.444569,4.981 Z" id="Fill-79"></path>
                        <path d="M296.225372,18.2340625 L296.225372,12.2490625 C296.225372,11.4878125 296.013696,10.8653125 295.592217,10.3796875 C295.172611,9.8921875 294.556315,9.6484375 293.750823,9.6484375 C292.789851,9.6484375 292.049921,9.9821875 291.525414,10.6459375 C291.004654,11.3115625 290.7424,12.2190625 290.7424,13.3703125 C290.7424,14.0115625 290.813583,14.5496875 290.955949,14.9846875 C291.100189,15.4159375 291.281893,15.7684375 291.508555,16.0346875 C291.735217,16.3028125 291.986231,16.4903125 292.265344,16.6046875 C292.542583,16.7171875 292.819823,16.7734375 293.091442,16.7734375 C293.329344,16.7734375 293.548513,16.7584375 293.750823,16.7284375 C293.953132,16.7003125 294.155442,16.6365625 294.355879,16.5428125 L294.711794,17.9846875 C294.485132,18.1046875 294.228499,18.1946875 293.938146,18.2621875 C293.647794,18.3259375 293.318104,18.3578125 292.950949,18.3578125 C292.417076,18.3578125 291.900062,18.2621875 291.40178,18.0653125 C290.903499,17.8703125 290.461414,17.5665625 290.0774,17.1559375 C289.691513,16.7471875 289.386175,16.2278125 289.161386,15.5978125 C288.932851,14.9696875 288.82233,14.2253125 288.82233,13.3703125 C288.82233,12.6240625 288.925358,11.9265625 289.133287,11.2778125 C289.339344,10.6309375 289.648428,10.0703125 290.058668,9.5959375 C290.468907,9.1215625 290.976555,8.7446875 291.587231,8.4728125 C292.19978,8.1990625 292.904118,8.0621875 293.696499,8.0621875 C294.432682,8.0621875 295.080823,8.1728125 295.639048,8.3921875 C296.193527,8.6115625 296.659963,8.9115625 297.034611,9.2921875 C297.409259,9.6728125 297.686499,10.1171875 297.870076,10.6271875 C298.055527,11.1390625 298.145442,11.6846875 298.145442,12.2659375 L298.145442,18.2340625 L296.225372,18.2340625 Z" id="Fill-80"></path>
                    </g>
                    <path d="M93.8968761,37.2125 L398.298285,37.2125" id="Stroke-82" stroke="#0070BC" stroke-width="1.875"></path>
                </g>
            </g>
        </g>
    </g>
</svg>