<?xml version="1.0" standalone="no"?>
<!DOCTYPE svg PUBLIC "-//W3C//DTD SVG 20010904//EN"
 "http://www.w3.org/TR/2001/REC-SVG-20010904/DTD/svg10.dtd">
<svg version="1.0" xmlns="http://www.w3.org/2000/svg"
 width="700.000000pt" height="700.000000pt" viewBox="0 0 700.000000 700.000000"
 preserveAspectRatio="xMidYMid meet">
<metadata>
Created by potrace 1.11, written by Peter Selinger 2001-2013
</metadata>
<g transform="translate(0.000000,700.000000) scale(0.100000,-0.100000)"
fill="#000000" stroke="none">
<path d="M3250 6994 c-490 -44 -872 -145 -1266 -334 -371 -177 -655 -380 -959
-685 -190 -190 -309 -332 -435 -520 -550 -821 -724 -1828 -484 -2788 223 -885
800 -1660 1593 -2136 563 -338 1210 -506 1876 -488 532 15 993 130 1469 369
811 407 1441 1131 1733 1993 129 381 178 689 178 1115 0 346 -23 545 -100 850
-350 1392 -1529 2430 -2960 2606 -123 15 -547 27 -645 18z m551 -214 c394 -39
779 -150 1132 -326 912 -455 1557 -1294 1757 -2284 48 -238 63 -389 63 -650 0
-261 -15 -412 -63 -650 -172 -855 -674 -1597 -1410 -2085 -765 -508 -1705
-666 -2611 -439 -217 54 -449 143 -678 259 -918 468 -1570 1355 -1740 2370
-60 355 -58 755 5 1120 59 348 203 742 387 1060 217 377 542 739 906 1008 453
337 1012 552 1601 616 110 12 532 13 651 1z"/>
<path d="M3220 6589 c-972 -80 -1851 -627 -2368 -1474 -213 -349 -362 -780
-417 -1208 -104 -814 135 -1656 655 -2307 110 -138 348 -376 479 -479 651
-515 1471 -747 2287 -646 1251 155 2285 1063 2599 2281 69 266 95 481 95 778
0 502 -108 951 -337 1400 -143 279 -327 531 -547 751 -660 657 -1533 980
-2446 904z m545 -654 c179 -27 358 -93 490 -180 98 -66 214 -196 269 -302 l16
-33 -172 -87 c-95 -49 -184 -94 -198 -101 -24 -13 -29 -10 -107 66 -90 90
-185 143 -328 184 -69 20 -103 23 -240 23 -123 0 -175 -4 -225 -18 -147 -40
-238 -105 -286 -203 -23 -47 -26 -63 -23 -132 5 -96 32 -144 112 -197 96 -63
186 -87 514 -134 596 -86 860 -231 980 -536 70 -179 68 -441 -5 -621 -70 -172
-229 -331 -413 -410 l-26 -12 -76 219 -75 219 52 53 c68 67 96 139 96 240 0
92 -28 156 -97 217 -100 90 -235 136 -520 175 -427 59 -649 133 -815 269 -85
70 -159 181 -194 289 -36 111 -45 298 -20 411 69 310 360 535 776 601 118 18
392 18 515 0z m-1479 -2690 c134 -412 274 -843 311 -957 37 -115 70 -208 73
-208 3 0 150 431 326 958 l320 957 164 0 165 0 47 -135 c25 -74 173 -504 329
-955 155 -451 285 -823 288 -827 3 -4 125 370 271 830 145 460 282 892 303
960 l39 122 279 0 c153 0 279 -2 279 -3 0 -2 -201 -561 -446 -1243 -245 -681
-460 -1278 -477 -1327 l-31 -87 -215 2 -216 3 -162 410 c-101 254 -216 570
-303 833 -78 232 -143 422 -145 422 -2 0 -65 -188 -140 -417 -84 -256 -200
-580 -298 -835 l-162 -418 -215 0 -215 0 -146 398 c-552 1499 -829 2254 -829
2263 0 6 106 8 281 7 l281 -3 244 -750z m505 693 c33 -66 115 -159 179 -203
l38 -27 -73 -216 c-40 -119 -76 -225 -80 -235 -7 -16 -15 -13 -84 24 -106 57
-202 137 -277 233 -70 88 -161 253 -147 266 6 7 402 218 410 220 2 0 17 -28
34 -62z"/>
</g>
</svg>
